# xmcd
#
# Track frame offsets:
#	150
#	18295
#	44838
#	71515
#	107047
#	142674
#	179901
#	199850
#	243928
#	284107
#
# Disc length: 4330 seconds
# Revision: 0
# Processed by: cddbd v1.5.2PL0 Copyright (c) Steve Scherf et al.
# Submitted via: dBpowerAMP V12.0
#
DISCID=9910e80a
DTITLE=The Lachy Doley Group - Live at 303
DYEAR=2014
DGENRE=Blues
TTITLE0=Love Blinded Fool (Live)
TTITLE1=Jealous Guy (Live)
TTITLE2=The Walking Dead (Live)
TTITLE3=If Looks Could Kill (Live)
TTITLE4=Not Mistaken (Live)
TTITLE5=Jemima Jane (Live)
TTITLE6=The Underground (Live)
TTITLE7=Still In Love (Live)
TTITLE8=Right Time (Live)
TTITLE9=Gimme Some Lovin' (Live)
EXTD=
EXTT0=
EXTT1=
EXTT2=
EXTT3=
EXTT4=
EXTT5=
EXTT6=
EXTT7=
EXTT8=
EXTT9=
PLAYORDER=
